<svg height="512" viewBox="0 0 512 512" width="512" xmlns="http://www.w3.org/2000/svg"><path d="m252 320h-176a48 48 0 0 1 48 48v128h176v-128a48 48 0 0 0 -48-48z" fill="#3c413c"/><path d="m76 320a48 48 0 0 1 48 48v128a0 0 0 0 1 0 0h-96a0 0 0 0 1 0 0v-128a48 48 0 0 1 48-48z" fill="#d7e6f0"/><path d="m140 320a48 48 0 0 1 48 48v24a24 24 0 0 0 24 24 24 24 0 0 0 24-24v-24a48 48 0 0 0 -48-48z" fill="#d7e6f0"/><path d="m220 368a48 48 0 0 0 -48-48h-16a48 48 0 0 1 48 48v46.629a24.026 24.026 0 0 0 16 0z" fill="#e13741"/><path d="m364 192h64a8 8 0 0 1 8 8v72a32 32 0 0 1 -32 32h-16a32 32 0 0 1 -32-32v-72a8 8 0 0 1 8-8z" fill="#a5c3dc"/><path d="m356 226.667h80a0 0 0 0 1 0 0v45.333a32 32 0 0 1 -32 32h-16a32 32 0 0 1 -32-32v-45.333a0 0 0 0 1 0 0z" fill="#aa2823"/><path d="m388 304h16v64h-16z" fill="#a5c3dc"/><path d="m388 304h16v16h-16z" fill="#87a5be"/><path d="m380 368h32a16 16 0 0 1 16 16 0 0 0 0 1 0 0h-64a0 0 0 0 1 0 0 16 16 0 0 1 16-16z" fill="#87a5be"/><path d="m356 226.667h32a0 0 0 0 1 0 0v45.333a16 16 0 0 1 -16 16 16 16 0 0 1 -16-16v-45.333a0 0 0 0 1 0 0z" fill="#e13741"/><rect fill="#d7e6f0" height="69.333" rx="5.333" width="10.667" x="366.667" y="202.667"/><path d="m172 32a96 96 0 0 0 -96 96v192h112v-32h64a48 48 0 0 0 48-48v-112a96 96 0 0 0 -96-96z" fill="#fab991"/><path d="m260 16h-88a112 112 0 0 0 -112 112v112a32 32 0 0 0 32 32h32a32 32 0 0 0 32-32v-48a32 32 0 0 0 32-32 32 32 0 0 1 32-32h80a16 16 0 0 0 16-16v-40a56 56 0 0 0 -56-56z" fill="#3c413c"/><path d="m108 288h80a0 0 0 0 1 0 0v32a0 0 0 0 1 0 0h-112a0 0 0 0 1 0 0 32 32 0 0 1 32-32z" fill="#f0915a"/><path d="m156 160v80a40 40 0 0 1 0-80z" fill="#f0915a"/><circle cx="226.667" cy="160" fill="#3c413c" r="12"/><circle cx="266.667" cy="160" fill="#3c413c" r="12"/><path d="m246.667 173.333a32 32 0 0 1 32 32v2.667a16 16 0 0 1 -16 16 16 16 0 0 1 -16-16v-34.667a0 0 0 0 1 0 0z" fill="#f0915a"/><path d="m244 240h32a0 0 0 0 1 0 0 16 16 0 0 1 -16 16 16 16 0 0 1 -16-16 0 0 0 0 1 0 0z" fill="#3c413c"/><path d="m479.313 388.687a16 16 0 0 0 -22.627 0l-38.627 38.626a15.894 15.894 0 0 1 -11.314 4.687h-42.745a8 8 0 0 0 -8 8v40h32a16 16 0 0 1 16-16h2.745a47.683 47.683 0 0 0 33.941-14.06l38.627-38.627a16 16 0 0 0 0-22.626z" fill="#f0915a"/><path d="m392 392h-36a32 32 0 0 0 -32 32v56h32v-40a8 8 0 0 1 8-8h28a20 20 0 0 0 20-20 20 20 0 0 0 -20-20z" fill="#fab991"/><path d="m324 480h64a8 8 0 0 1 8 8v8a0 0 0 0 1 0 0h-80a0 0 0 0 1 0 0v-8a8 8 0 0 1 8-8z" fill="#a5c3dc"/><circle cx="212" cy="456" fill="#736969" r="16"/></svg>